<?xml version="1.0" standalone="no"?>
<!DOCTYPE svg PUBLIC "-//W3C//DTD SVG 20010904//EN"
 "http://www.w3.org/TR/2001/REC-SVG-20010904/DTD/svg10.dtd">
<svg version="1.0" xmlns="http://www.w3.org/2000/svg"
 width="220.000000pt" height="205.000000pt" viewBox="0 0 220.000000 205.000000"
 preserveAspectRatio="xMidYMid meet">

<g transform="translate(0.000000,205.000000) scale(0.100000,-0.100000)"
fill="#000000" stroke="none">
<path d="M0 1025 l0 -1025 1100 0 1100 0 0 1025 0 1025 -1100 0 -1100 0 0
-1025z m930 288 c101 -291 185 -534 188 -541 3 -10 -7 -12 -44 -10 l-48 3
-176 503 c-98 276 -179 504 -182 507 -2 3 -24 -163 -48 -368 -30 -259 -44
-414 -44 -509 l-1 -138 -52 0 -52 0 15 43 c22 62 61 222 73 297 8 53 91 721
91 736 0 2 22 4 48 4 l49 0 183 -527z m650 522 c0 -8 139 -1019 145 -1047 l5
-28 -80 0 c-52 0 -80 4 -80 11 0 16 -120 892 -124 904 -1 6 -51 -136 -111
-314 -78 -234 -110 -319 -117 -308 -6 12 28 125 116 384 68 202 128 376 131
386 6 13 19 17 61 17 30 0 54 -2 54 -5z m-640 -1390 l0 -215 -25 0 c-24 0 -25
3 -26 58 l0 57 -19 -41 c-28 -63 -64 -87 -124 -81 -41 4 -55 11 -82 40 -63 69
-55 187 16 235 32 22 43 23 123 20 l87 -4 0 73 c0 71 1 73 25 73 l25 0 0 -215z
m980 142 l0 -73 88 4 c79 3 90 2 122 -20 70 -47 78 -167 16 -235 -27 -29 -41
-36 -82 -40 -60 -6 -96 18 -124 81 l-19 41 0 -57 c-1 -55 -2 -58 -26 -58 l-25
0 0 215 0 215 25 0 c24 0 25 -2 25 -73z m-1410 -147 l0 -210 -30 0 -30 0 0
210 0 210 30 0 30 0 0 -210z m-280 181 l-115 -6 -3 -87 -3 -88 93 -2 93 -2
-92 -3 -93 -4 0 -94 0 -94 118 -4 117 -3 -142 -2 -143 -2 0 200 0 200 143 -2
142 -2 -115 -5z m1059 -116 c33 -17 54 -62 55 -119 l1 -41 -113 -3 -114 -3 6
-27 c4 -15 21 -40 38 -56 26 -24 37 -28 73 -24 23 3 57 13 75 22 18 9 35 14
38 12 9 -10 -64 -38 -113 -43 -70 -7 -136 22 -159 71 -37 78 -10 177 57 210
40 20 119 21 156 1z m401 2 c33 -16 60 -72 60 -124 l0 -43 -115 0 c-63 0 -115
-2 -115 -5 0 -22 33 -76 54 -91 34 -21 103 -13 155 18 26 16 32 17 23 6 -40
-49 -175 -62 -230 -21 -86 62 -80 198 10 253 38 23 119 27 158 7z"/>
<path d="M713 486 c-27 -23 -28 -28 -28 -116 0 -88 1 -93 28 -116 76 -66 151
7 166 162 7 74 6 76 -17 85 -47 18 -119 11 -149 -15z"/>
<path d="M1943 500 c-20 -8 -22 -14 -17 -62 13 -125 45 -190 99 -204 69 -17
110 48 102 160 -6 90 -31 116 -110 115 -29 0 -62 -4 -74 -9z"/>
<path d="M1167 499 c-25 -15 -47 -63 -47 -104 l0 -35 110 0 111 0 -7 38 c-9
55 -26 85 -54 99 -30 15 -88 16 -113 2z"/>
<path d="M1561 489 c-27 -25 -41 -60 -41 -100 l0 -29 110 0 c98 0 110 2 110
18 0 39 -22 92 -47 112 -35 27 -102 27 -132 -1z"/>
</g>
</svg>
