<?xml version="1.0" standalone="no"?>
<!DOCTYPE svg PUBLIC "-//W3C//DTD SVG 20010904//EN"
 "http://www.w3.org/TR/2001/REC-SVG-20010904/DTD/svg10.dtd">
<svg version="1.0" xmlns="http://www.w3.org/2000/svg"
 width="305.000000pt" height="271.000000pt" viewBox="0 0 305.000000 271.000000"
 preserveAspectRatio="xMidYMid meet">

<g transform="translate(0.000000,271.000000) scale(0.100000,-0.100000)"
fill="#000000" stroke="none">
<path d="M0 1355 l0 -1355 1525 0 1525 0 0 1355 0 1355 -1525 0 -1525 0 0
-1355z m1387 390 c89 -253 166 -468 170 -478 6 -13 25 31 71 165 34 101 107
317 163 481 l101 297 54 0 c30 0 54 -4 54 -8 0 -15 140 -1026 145 -1049 5 -22
3 -23 -75 -23 -61 0 -80 3 -80 14 0 21 -121 900 -124 904 -2 1 -73 -203 -158
-455 l-156 -458 -52 0 -53 0 -173 495 c-96 272 -178 503 -182 514 -14 33 -96
-707 -96 -871 l-1 -143 -51 0 -52 0 29 93 c43 134 64 261 109 639 22 185 40
339 40 343 0 3 35 5 78 3 l77 -3 162 -460z m-29 -972 l2 -243 -45 0 -45 0 -1
68 0 67 -23 -50 c-13 -27 -33 -59 -44 -69 -33 -29 -109 -33 -164 -8 -56 24
-79 68 -79 152 -1 75 22 118 75 144 42 21 147 27 204 13 l32 -9 0 92 0 91 43
-3 42 -3 3 -242z m1152 156 l0 -91 33 9 c17 4 62 8 98 7 121 -2 179 -55 179
-164 0 -64 -22 -114 -63 -144 -22 -16 -43 -21 -92 -21 -75 0 -96 14 -131 90
l-24 50 0 -67 0 -68 -45 0 -45 0 0 238 c0 131 3 242 7 245 3 4 24 7 45 7 l38
0 0 -91z m-1690 -164 l0 -235 -45 0 -45 0 0 235 0 235 45 0 45 0 0 -235z
m-337 198 l-133 -4 0 -94 0 -95 103 -2 102 -2 -100 -5 -100 -6 -3 -107 -3
-107 133 -4 c125 -2 122 -3 -44 -5 l-178 -2 0 220 0 220 178 -2 c165 -2 168
-3 45 -5z m1284 -128 c31 -20 49 -60 58 -122 l7 -53 -127 0 c-112 0 -126 -2
-121 -16 3 -9 6 -25 6 -36 0 -11 14 -33 30 -50 28 -27 36 -30 79 -26 27 3 68
15 92 27 41 20 42 20 21 1 -57 -48 -184 -51 -252 -7 -94 63 -94 199 1 270 52
38 156 44 206 12z m442 7 c49 -25 71 -60 78 -125 l6 -57 -122 0 -121 0 0 -27
c0 -39 35 -91 65 -99 37 -9 105 3 145 27 l35 20 -23 -21 c-53 -45 -165 -51
-238 -13 -45 23 -84 89 -84 140 0 74 47 135 121 158 60 19 98 18 138 -3z"/>
<path d="M1124 843 c-45 -9 -68 -49 -72 -123 -5 -91 4 -137 33 -166 75 -75
168 35 177 211 l3 59 -40 12 c-41 13 -64 14 -101 7z"/>
<path d="M2565 839 c-22 -5 -44 -14 -49 -19 -12 -12 12 -166 34 -217 22 -50
72 -80 115 -69 53 13 82 140 54 239 -16 59 -75 84 -154 66z"/>
<path d="M1645 836 c-36 -15 -54 -51 -62 -118 l-6 -48 122 0 123 0 -7 43 c-9
56 -25 86 -55 108 -35 25 -80 31 -115 15z"/>
<path d="M2115 841 c-34 -15 -54 -46 -65 -101 -5 -29 -10 -57 -10 -61 0 -5 55
-9 121 -9 l122 0 -6 45 c-12 83 -41 117 -112 129 -16 3 -39 1 -50 -3z"/>
</g>
</svg>
